<?xml version="1.0" encoding="UTF-8" standalone="no"?>
<!DOCTYPE svg PUBLIC "-//W3C//DTD SVG 1.1//EN" "http://www.w3.org/Graphics/SVG/1.1/DTD/svg11.dtd">
<svg width="50" height="50" viewBox="0 0 50 50" fill="none" xmlns="http://www.w3.org/2000/svg">
    <path
        d="M13.9999 18.9883L6.78504 25L13.9999 31.0117C14.2392 31.2078 14.4372 31.4493 14.5827 31.7224C14.7282 31.9954 14.8182 32.2945 14.8475 32.6025C14.8768 32.9105 14.8448 33.2212 14.7535 33.5167C14.6621 33.8123 14.5131 34.0869 14.3151 34.3246C14.1171 34.5623 13.874 34.7584 13.5998 34.9017C13.3257 35.045 13.0258 35.1326 12.7176 35.1594C12.4094 35.1863 12.099 35.1518 11.8042 35.0581C11.5093 34.9644 11.236 34.8132 10.9999 34.6133L1.62488 26.8008C1.36084 26.5808 1.1484 26.3055 1.00261 25.9943C0.856822 25.6831 0.78125 25.3437 0.78125 25C0.78125 24.6564 0.856822 24.3169 1.00261 24.0057C1.1484 23.6945 1.36084 23.4192 1.62488 23.1992L10.9999 15.3867C11.4781 14.9948 12.0919 14.8077 12.7075 14.8663C13.3231 14.9249 13.8906 15.2243 14.2863 15.6995C14.6821 16.1746 14.8741 16.7868 14.8204 17.4029C14.7667 18.0189 14.4718 18.5888 13.9999 18.9883ZM48.3749 23.1992L38.9999 15.3867C38.7638 15.1868 38.4904 15.0357 38.1956 14.9419C37.9008 14.8482 37.5903 14.8138 37.2821 14.8406C36.9739 14.8675 36.6741 14.955 36.3999 15.0983C36.1257 15.2416 35.8826 15.4378 35.6847 15.6755C35.4867 15.9132 35.3377 16.1877 35.2463 16.4833C35.1549 16.7788 35.123 17.0896 35.1523 17.3975C35.1816 17.7055 35.2716 18.0046 35.417 18.2777C35.5625 18.5507 35.7606 18.7922 35.9999 18.9883L43.2147 25L35.9999 31.0117C35.7606 31.2078 35.5625 31.4493 35.417 31.7224C35.2716 31.9954 35.1816 32.2945 35.1523 32.6025C35.123 32.9105 35.1549 33.2212 35.2463 33.5167C35.3377 33.8123 35.4867 34.0869 35.6847 34.3246C35.8826 34.5623 36.1257 34.7584 36.3999 34.9017C36.6741 35.045 36.9739 35.1326 37.2821 35.1594C37.5903 35.1863 37.9008 35.1518 38.1956 35.0581C38.4904 34.9644 38.7638 34.8132 38.9999 34.6133L48.3749 26.8008C48.6389 26.5808 48.8514 26.3055 48.9972 25.9943C49.1429 25.6831 49.2185 25.3437 49.2185 25C49.2185 24.6564 49.1429 24.3169 48.9972 24.0057C48.8514 23.6945 48.6389 23.4192 48.3749 23.1992ZM32.0507 5.60939C31.7614 5.50418 31.4541 5.45699 31.1466 5.47053C30.839 5.48407 30.5372 5.55806 30.2582 5.68829C29.9793 5.81851 29.7287 6.00242 29.5208 6.2295C29.313 6.45658 29.1519 6.72239 29.0468 7.01174L16.5468 41.3867C16.3349 41.9708 16.3636 42.6151 16.6265 43.178C16.8895 43.7409 17.3652 44.1764 17.9491 44.3887C18.2055 44.4834 18.4766 44.5316 18.7499 44.5313C19.2311 44.5314 19.7007 44.3833 20.0948 44.1073C20.489 43.8312 20.7886 43.4405 20.953 42.9883L33.453 8.6133C33.5582 8.32398 33.6054 8.01678 33.5919 7.70922C33.5783 7.40167 33.5043 7.09979 33.3741 6.82084C33.2439 6.54189 33.06 6.29133 32.8329 6.08346C32.6058 5.8756 32.34 5.71451 32.0507 5.60939Z"
        fill="currentColor" />
</svg>
        
            